<svg version="1.1" id="Layer_1" xmlns="http://www.w3.org/2000/svg" xmlns:xlink="http://www.w3.org/1999/xlink" x="0px" y="0px"
	 width="100%" viewBox="0 0 200 200" enable-background="new 0 0 200 200" xml:space="preserve">
<path fill="none" opacity="1.000000" stroke="none" 
	d="
M138.000000,201.000000 
	C92.000000,201.000000 46.500004,201.000000 1.000006,201.000000 
	C1.000004,134.333344 1.000004,67.666679 1.000002,1.000015 
	C67.666656,1.000010 134.333313,1.000010 200.999969,1.000005 
	C200.999985,67.666649 200.999985,134.333298 201.000000,200.999969 
	C180.166672,201.000000 159.333328,201.000000 138.000000,201.000000 
M20.905272,82.589073 
	C22.671383,80.341438 25.569433,78.275581 25.965708,75.807961 
	C26.766972,70.818443 26.380739,65.601463 26.096838,60.499832 
	C26.024244,59.195366 24.731630,57.327663 23.575542,56.919415 
	C22.691219,56.607136 21.138721,58.187012 19.231810,59.482605 
	C19.157574,66.702110 19.050600,73.921692 19.068785,81.140961 
	C19.070305,81.744446 19.914843,82.345810 20.905272,82.589073 
M182.321930,83.087967 
	C182.247482,75.027763 182.173050,66.967560 181.915924,58.257942 
	C179.682983,55.806812 176.718109,55.865761 176.277893,58.908413 
	C175.451721,64.618530 175.357086,70.592270 176.122589,76.300217 
	C176.446243,78.713699 179.714691,80.732262 182.321930,83.087967 
M163.132523,129.195374 
	C163.132523,129.195374 163.145569,129.062057 163.751099,128.811798 
	C165.255081,127.443092 166.759064,126.074387 168.939682,124.824203 
	C179.907242,119.700844 185.572144,111.359230 184.834686,100.615952 
	C184.077362,89.583122 179.371887,81.088051 168.008835,76.543747 
	C165.129593,74.075165 162.250336,71.606575 159.051498,68.578201 
	C155.350479,64.748497 152.056519,60.387711 147.876038,57.183517 
	C132.073029,45.070992 114.123795,40.060474 94.211311,41.803619 
	C73.448334,43.621227 56.158882,51.946384 42.392822,68.285851 
	C42.202553,68.572433 42.012283,68.859024 42.030346,69.099022 
	C42.030346,69.099022 41.984909,68.890442 41.342728,69.110779 
	C38.795807,71.808975 36.248886,74.507172 33.027744,77.212227 
	C22.879322,81.390778 17.729225,89.020355 17.663252,99.941864 
	C17.589567,112.139778 20.723475,120.497086 34.406738,124.965660 
	C36.264645,126.681122 38.122551,128.396591 40.011055,129.912552 
	C40.011055,129.912552 39.811695,129.881058 40.033054,130.301270 
	C40.175343,130.612396 40.414223,130.800858 41.062500,131.501068 
	C43.216419,133.999634 45.253017,136.612030 47.546394,138.975266 
	C54.265324,145.898880 54.299709,145.857361 50.121185,154.697113 
	C49.712906,155.560822 49.429249,156.483459 48.415646,159.140732 
	C53.719837,157.312225 58.172840,156.578110 61.654903,154.336075 
	C64.717194,152.364304 66.763969,152.785812 69.623306,154.057709 
	C87.166672,161.861374 105.217041,162.768143 123.587486,157.449402 
	C139.539291,152.830902 152.175629,143.461655 162.469528,130.001633 
	C162.645981,129.729706 162.822449,129.457779 163.132523,129.195374 
z"/>
<path fill="#3546DC" opacity="1.000000" stroke="none" 
	d="
M161.975662,130.148376 
	C152.175629,143.461655 139.539291,152.830902 123.587486,157.449402 
	C105.217041,162.768143 87.166672,161.861374 69.623306,154.057709 
	C66.763969,152.785812 64.717194,152.364304 61.654903,154.336075 
	C58.172840,156.578110 53.719837,157.312225 48.415646,159.140732 
	C49.429249,156.483459 49.712906,155.560822 50.121185,154.697113 
	C54.299709,145.857361 54.265324,145.898880 47.546394,138.975266 
	C45.253017,136.612030 43.216419,133.999634 40.827621,130.961365 
	C40.327179,130.248993 40.066826,130.068802 39.811695,129.881058 
	C39.811695,129.881058 40.011055,129.912552 40.166855,129.664154 
	C29.103601,109.743042 29.144402,90.302208 41.476185,71.085510 
	C41.858231,70.490166 41.824699,69.628143 41.984909,68.890442 
	C41.984909,68.890442 42.030346,69.099022 42.105473,68.957672 
	C42.519539,68.739639 42.761120,68.543327 42.905338,68.227409 
	C56.158882,51.946384 73.448334,43.621227 94.211311,41.803619 
	C114.123795,40.060474 132.073029,45.070992 147.876038,57.183517 
	C152.056519,60.387711 155.350479,64.748497 159.360291,69.195732 
	C171.805267,88.002769 173.486755,106.835358 163.230286,126.448280 
	C162.866440,127.144035 163.158966,128.183029 163.145569,129.062057 
	C163.145569,129.062057 163.132523,129.195374 163.080688,128.818573 
	C162.677795,129.010651 162.326721,129.579514 161.975662,130.148376 
M139.113312,68.868431 
	C137.330139,68.531624 135.547897,67.907448 133.763672,67.901718 
	C111.935623,67.831604 90.103073,67.637466 68.283279,68.065834 
	C64.748535,68.135223 60.441418,70.251877 57.901966,72.818123 
	C42.985851,87.891640 43.028336,113.428917 57.436813,129.024261 
	C60.577629,132.423798 64.189789,134.228500 68.832474,134.219360 
	C90.327950,134.177048 111.824760,134.305313 133.317719,134.067764 
	C136.271973,134.035110 139.928757,133.104080 142.039246,131.220703 
	C161.871780,113.522247 158.287552,82.220268 139.113312,68.868431 
z"/>
<path fill="#3747DA" opacity="1.000000" stroke="none" 
	d="
M168.318680,77.195160 
	C179.371887,81.088051 184.077362,89.583122 184.834686,100.615952 
	C185.572144,111.359230 179.907242,119.700844 168.525146,124.418625 
	C171.776749,116.471413 174.041641,108.454292 173.064682,100.146584 
	C172.155716,92.416962 169.952255,84.839569 168.318680,77.195160 
z"/>
<path fill="#3646DD" opacity="1.000000" stroke="none" 
	d="
M33.727119,124.724251 
	C20.723475,120.497086 17.589567,112.139778 17.663252,99.941864 
	C17.729225,89.020355 22.879322,81.390778 33.406689,77.556213 
	C30.087421,85.630859 27.948492,93.853859 28.941729,102.320480 
	C29.827566,109.871605 32.078564,117.262596 33.727119,124.724251 
z"/>
<path fill="#F4F4F9" opacity="1.000000" stroke="none" 
	d="
M34.066929,124.844955 
	C32.078564,117.262596 29.827566,109.871605 28.941729,102.320480 
	C27.948492,93.853859 30.087421,85.630859 33.743797,77.552780 
	C36.248886,74.507172 38.795807,71.808975 41.663818,69.000610 
	C41.824699,69.628143 41.858231,70.490166 41.476185,71.085510 
	C29.144402,90.302208 29.103601,109.743042 40.151554,129.763916 
	C38.122551,128.396591 36.264645,126.681122 34.066929,124.844955 
z"/>
<path fill="#F6F6FA" opacity="1.000000" stroke="none" 
	d="
M168.163757,76.869453 
	C169.952255,84.839569 172.155716,92.416962 173.064682,100.146584 
	C174.041641,108.454292 171.776749,116.471413 168.186829,124.359360 
	C166.759064,126.074387 165.255081,127.443092 163.448334,128.936920 
	C163.158966,128.183029 162.866440,127.144035 163.230286,126.448280 
	C173.486755,106.835358 171.805267,88.002769 159.520081,69.475624 
	C162.250336,71.606575 165.129593,74.075165 168.163757,76.869453 
z"/>
<path fill="#3342E0" opacity="1.000000" stroke="none" 
	d="
M181.644669,82.930328 
	C179.714691,80.732262 176.446243,78.713699 176.122589,76.300217 
	C175.357086,70.592270 175.451721,64.618530 176.277893,58.908413 
	C176.718109,55.865761 179.682983,55.806812 181.981918,59.055393 
	C181.913498,67.545341 181.779083,75.237831 181.644669,82.930328 
z"/>
<path fill="#3344DF" opacity="1.000000" stroke="none" 
	d="
M19.883429,58.925251 
	C21.138721,58.187012 22.691219,56.607136 23.575542,56.919415 
	C24.731630,57.327663 26.024244,59.195366 26.096838,60.499832 
	C26.380739,65.601463 26.766972,70.818443 25.965708,75.807961 
	C25.569433,78.275581 22.671383,80.341438 20.518658,82.315430 
	C20.049173,74.336273 19.966301,66.630760 19.883429,58.925251 
z"/>
<path fill="#4E519C" opacity="1.000000" stroke="none" 
	d="
M19.557619,59.203926 
	C19.966301,66.630760 20.049173,74.336273 20.249878,82.494965 
	C19.914843,82.345810 19.070305,81.744446 19.068785,81.140961 
	C19.050600,73.921692 19.157574,66.702110 19.557619,59.203926 
z"/>
<path fill="#4757A0" opacity="1.000000" stroke="none" 
	d="
M181.983307,83.009148 
	C181.779083,75.237831 181.913498,67.545341 182.073273,59.380100 
	C182.173050,66.967560 182.247482,75.027763 181.983307,83.009148 
z"/>
<path fill="#F6F6FA" opacity="1.000000" stroke="none" 
	d="
M162.222595,130.075012 
	C162.326721,129.579514 162.677795,129.010651 163.013885,128.813812 
	C162.822449,129.457779 162.645981,129.729706 162.222595,130.075012 
z"/>
<path fill="#F4F4F9" opacity="1.000000" stroke="none" 
	d="
M42.649078,68.256630 
	C42.761120,68.543327 42.519539,68.739639 42.001305,68.980972 
	C42.012283,68.859024 42.202553,68.572433 42.649078,68.256630 
z"/>
<path fill="#F4F4F9" opacity="1.000000" stroke="none" 
	d="
M39.922375,130.091156 
	C40.066826,130.068802 40.327179,130.248993 40.671227,130.644150 
	C40.414223,130.800858 40.175343,130.612396 39.922375,130.091156 
z"/>
<path fill="#FEFEFE" opacity="1.000000" stroke="none" 
	d="
M139.486206,69.013062 
	C158.287552,82.220268 161.871780,113.522247 142.039246,131.220703 
	C139.928757,133.104080 136.271973,134.035110 133.317719,134.067764 
	C111.824760,134.305313 90.327950,134.177048 68.832474,134.219360 
	C64.189789,134.228500 60.577629,132.423798 57.436813,129.024261 
	C43.028336,113.428917 42.985851,87.891640 57.901966,72.818123 
	C60.441418,70.251877 64.748535,68.135223 68.283279,68.065834 
	C90.103073,67.637466 111.935623,67.831604 133.763672,67.901718 
	C135.547897,67.907448 137.330139,68.531624 139.486206,69.013062 
M82.197853,91.042915 
	C75.033638,87.464035 67.958092,89.063255 65.013222,95.119888 
	C64.453064,96.271957 64.360855,98.102737 64.910225,99.185173 
	C65.279190,99.912163 67.154739,100.110909 68.363808,100.133118 
	C72.943634,100.217232 77.529045,100.210487 82.106781,100.063622 
	C83.452278,100.020454 85.379654,99.799675 85.950989,98.937996 
	C86.558540,98.021690 86.204063,96.100143 85.662476,94.889061 
	C85.081108,93.588997 83.793388,92.604813 82.197853,91.042915 
M132.878723,100.059631 
	C134.462006,99.586403 136.640701,99.556763 137.432556,98.493904 
	C138.022934,97.701485 137.192657,95.321121 136.354218,94.081299 
	C131.589493,87.035591 120.888222,87.238571 116.650764,94.457520 
	C115.921196,95.700432 115.427444,97.903862 116.051071,98.880806 
	C116.639290,99.802292 118.837517,99.944290 120.339760,99.985771 
	C124.260147,100.094032 128.187225,99.959450 132.878723,100.059631 
M102.939514,109.150345 
	C100.853462,108.617317 98.780373,108.022339 96.674934,107.582024 
	C95.842766,107.407982 94.938622,107.578171 94.067245,107.591621 
	C94.222893,108.453407 94.117294,109.502510 94.578255,110.145378 
	C96.891197,113.371140 102.212540,114.160118 105.677818,111.630600 
	C106.806953,110.806374 107.341309,109.167328 108.147690,107.900948 
	C106.654091,108.211006 105.160500,108.521072 102.939514,109.150345 
z"/>
<path fill="#3748E1" opacity="1.000000" stroke="none" 
	d="
M82.505875,91.262848 
	C83.793388,92.604813 85.081108,93.588997 85.662476,94.889061 
	C86.204063,96.100143 86.558540,98.021690 85.950989,98.937996 
	C85.379654,99.799675 83.452278,100.020454 82.106781,100.063622 
	C77.529045,100.210487 72.943634,100.217232 68.363808,100.133118 
	C67.154739,100.110909 65.279190,99.912163 64.910225,99.185173 
	C64.360855,98.102737 64.453064,96.271957 65.013222,95.119888 
	C67.958092,89.063255 75.033638,87.464035 82.505875,91.262848 
z"/>
<path fill="#3747E0" opacity="1.000000" stroke="none" 
	d="
M132.495178,99.990677 
	C128.187225,99.959450 124.260147,100.094032 120.339760,99.985771 
	C118.837517,99.944290 116.639290,99.802292 116.051071,98.880806 
	C115.427444,97.903862 115.921196,95.700432 116.650764,94.457520 
	C120.888222,87.238571 131.589493,87.035591 136.354218,94.081299 
	C137.192657,95.321121 138.022934,97.701485 137.432556,98.493904 
	C136.640701,99.556763 134.462006,99.586403 132.495178,99.990677 
z"/>
<path fill="#4251E6" opacity="1.000000" stroke="none" 
	d="
M103.303207,108.990738 
	C105.160500,108.521072 106.654091,108.211006 108.147690,107.900948 
	C107.341309,109.167328 106.806953,110.806374 105.677818,111.630600 
	C102.212540,114.160118 96.891197,113.371140 94.578255,110.145378 
	C94.117294,109.502510 94.222893,108.453407 94.067245,107.591621 
	C94.938622,107.578171 95.842766,107.407982 96.674934,107.582024 
	C98.780373,108.022339 100.853462,108.617317 103.303207,108.990738 
z"/>
</svg>